#!OML:ASF E:\id_vita\Project 1\Capture day 1\Session 1\Female.ASF
:FULLY-SPECIFIED
:DEGREES
361
root 33.0753 16.5008 2.49001 -161.972 -83.8169 179.289
lowerback -4.77741 1.00752 -3.10113
upperback -4.86095 1.29551 -0.285973
thorax -2.39578 0.680309 1.47735
lowerneck -2.6108 1.41875 -2.34069
upperneck 21.0218 0.637849 4.86705
head 6.78151 0.273138 1.97839
rclavicle -4.60932e-015 -2.04748e-014
rhumerus -48.307 -17.2472 -69.4412
rradius 32.1679
rwrist 18.349
rhand -5.80779 10.5007
rfingers 7.12502
rthumb 20.0171 -18.4882
lclavicle -4.60932e-015 -2.04748e-014
lhumerus -46.8868 30.3989 55.3043
lradius 20.4365
lwrist -35.1104
lhand -7.66931 27.7044
lfingers 7.12502
lthumb 18.227 56.8704
rfemur -21.2148 -7.21193 23.4468
rtibia 56.8651
rfoot -6.73728 -2.0667
rtoes -20.7428
lfemur -37.6488 -1.00613 -26.1684
ltibia 32.0814
lfoot -8.53966 12.6025
ltoes 8.26238
362
root 33.143 16.4965 2.4778 -161.462 -83.9801 178.974
lowerback -4.78719 1.09269 -3.10805
upperback -5.01647 1.39773 -0.410605
thorax -2.55406 0.730382 1.35358
lowerneck -2.43808 1.32381 -2.42699
upperneck 21.318 0.446166 5.03472
head 6.85251 0.177891 2.03712
rclavicle -9.01985e-015 1.64991e-014
rhumerus -49.6741 -18.6924 -68.0883
rradius 30.2693
rwrist 20.0037
rhand -3.87153 10.5055
rfingers 7.12502
rthumb 21.8773 -18.2777
lclavicle -9.01985e-015 1.64991e-014
lhumerus -51.3769 34.9739 48.4039
lradius 18.1504
lwrist -40.9192
lhand -7.2818 27.9171
lfingers 7.12502
lthumb 18.5998 57.0479
rfemur -20.4025 -7.04248 23.5344
rtibia 55.2248
rfoot -6.43274 -2.68257
rtoes -19.9654
lfemur -38.1329 -1.05884 -26.1521
ltibia 32.0273
lfoot -8.3111 12.4608
ltoes 9.14768
363
root 33.2153 16.4904 2.4627 -160.909 -84.159 178.598
lowerback -5.30249 1.10383 -3.14496
upperback -4.80638 1.4403 -0.50168
thorax -2.04915 0.743749 1.29524
lowerneck -2.37153 1.33581 -2.444
upperneck 21.2557 0.446414 5.14421
head 6.81968 0.185142 2.0743
rclavicle 7.55382e-015 -1.31198e-014
rhumerus -50.5463 -20.4084 -66.6676
rradius 28.4327
rwrist 21.9257
rhand -2.11398 10.1936
rfingers 7.12502
rthumb 23.5641 -18.3827
lclavicle 7.55382e-015 -1.31198e-014
lhumerus -56.849 39.4091 40.2951
lradius 16.433
lwrist -46.9811
lhand -6.89089 28.3535
lfingers 7.12502
lthumb 18.9758 57.4479
rfemur -19.5539 -6.81123 23.6587
rtibia 53.4158
rfoot -6.09271 -3.32388
rtoes -18.7665
lfemur -38.6046 -1.06886 -26.1248
ltibia 32.0204
lfoot -8.31607 12.3252
ltoes 9.05103
364
root 33.2927 16.4867 2.44113 -159.915 -84.4351 177.739
lowerback -5.36274 1.14229 -3.38108
upperback -4.80339 1.50062 -0.580937
thorax -2.02075 0.778499 1.34891
lowerneck -2.18739 1.22186 -2.46397
upperneck 21.2599 0.244079 5.33457
head 6.79565 0.0963675 2.12533
rclavicle -2.17918e-014 2.06736e-014
rhumerus -51.8864 -21.8283 -65.1908
rradius 26.9984
rwrist 23.173
rhand -0.337295 9.56051
rfingers 7.12502
rthumb 25.2673 -18.7863
lclavicle -2.17918e-014 2.06736e-014
lhumerus -63.9327 42.9308 30.3477
lradius 14.986
lwrist -53.7095
lhand -6.61679 28.7683
lfingers 7.12502
lthumb 19.2393 57.8367
rfemur -18.6816 -6.60255 23.825
rtibia 51.4113
rfoot -5.61919 -4.16008
rtoes -17.4661
lfemur -39.0334 -0.953966 -26.1544
ltibia 32.04
lfoot -8.48545 12.0123
ltoes 8.49608
365
root 33.3708 16.4816 2.42036 -158.89 -84.7022 176.882
lowerback -5.46587 1.20074 -3.6128
upperback -4.79096 1.58988 -0.665816
thorax -1.96028 0.826836 1.39646
lowerneck -2.05969 1.03909 -2.52117
upperneck 21.2787 -0.0627328 5.5941
head 6.79093 -0.0392946 2.19952
rclavicle -4.47266e-015 -1.19271e-014
rhumerus -53.3443 -23.2101 -63.6556
rradius 25.8247
rwrist 24.2399
rhand 1.18531 8.8255
rfingers 7.12502
rthumb 26.7252 -19.3071
lclavicle -4.47266e-015 -1.19271e-014
lhumerus -72.9951 45.7575 17.8159
lradius 13.7834
lwrist -61.5076
lhand -6.43176 29.1689
lfingers 7.12502
lthumb 19.4173 58.2195
rfemur -17.7897 -6.34666 23.9723
rtibia 49.1833
rfoot -5.26173 -5.26297
rtoes -16.7887
lfemur -39.5193 -0.778859 -26.2149
ltibia 32.0502
lfoot -8.59675 11.618
ltoes 8.03573
